<svg xmlns="http://www.w3.org/2000/svg" viewBox="0 0 24 24"><path fill="#25D366" d="M12 2C6.48 2 2 6.48 2 12c0 1.98.52 3.83 1.42 5.45L2 22l4.7-1.23C8.14 21.6 10 22 12 22c5.52 0 10-4.48 10-10S17.52 2 12 2z"/><path fill="#fff" d="M17.5 14.5c-.6 1.8-2.2 3.2-4 3.5-2.3.4-4.6-.7-6-2.9-.8-1.2-1.2-2.6-1.1-4 .1-1.2.6-2.2 1.3-3 .5-.6 1.2-.9 1.9-1 .5-.1.9 0 1.3.2.4.2.7.5.9.9.2.4.1.9-.1 1.2-.2.4-.5.7-.8.9-.3.2-.6.5-.6.8 0 .1.1.3.2.4.2.2.5.4.8.4.5.1 1.1 0 1.6-.2 1.2-.5 2.3-.8 3.5-.6.5.1 1 .3 1.4.7.4.4.6.9.6 1.5 0 .6-.1 1.2-.4 1.7z"/></svg>